<?xml version="1.0" encoding="utf-8"?><svg xmlns="http://www.w3.org/2000/svg" xmlns:xlink="http://www.w3.org/1999/xlink"><symbol viewBox="0 0 34 40" id="bin" xmlns="http://www.w3.org/2000/svg"><path d="M11.334 14.167h2.833v17h-2.833v-17zM19.833 14.167h2.834v17h-2.834v-17z"/><path d="M0 5.667V8.5h2.833v28.333a2.833 2.833 0 002.834 2.834h22.666a2.833 2.833 0 002.834-2.834V8.5H34V5.667H0zm5.667 31.166V8.5h22.666v28.333H5.667zM11.334 0h11.333v2.833H11.333V0z"/></symbol><symbol viewBox="0 0 34 32" id="bulb" xmlns="http://www.w3.org/2000/svg"><path d="M3.915 26.058l2.827-2.792 2.175 2.148-2.827 2.792-2.175-2.148zM15.44 32v-4.51h3.118V32H15.44zM4.64 13.745v3.078H0v-3.078h4.64zm17.036-6.371a9.425 9.425 0 013.37 3.293c.847 1.384 1.27 2.91 1.27 4.581 0 2.53-.907 4.69-2.719 6.48-1.812 1.789-4 2.684-6.56 2.684-2.562 0-4.75-.895-6.561-2.685-1.813-1.79-2.72-3.95-2.72-6.479 0-1.67.412-3.197 1.233-4.581.822-1.384 1.958-2.482 3.408-3.293V0h9.279v7.374zm7.684 6.371H34v3.078h-4.64v-3.078zm-4.277 11.669l2.175-2.076 2.827 2.72-2.175 2.148-2.827-2.792z"/></symbol><symbol viewBox="0 0 40 40" id="calendar" xmlns="http://www.w3.org/2000/svg"><path d="M37.812 5.333H33.75V8h3.75v29.334h-35V8h3.75V5.333H2.188c-.292.006-.58.072-.849.196-.268.124-.51.304-.714.528a2.396 2.396 0 00-.47.778c-.107.29-.16.6-.155.912v29.84c-.005.311.048.621.155.911.108.29.267.555.47.779.204.224.446.403.714.527.268.124.557.191.849.196h35.624c.292-.005.58-.072.849-.196.268-.124.51-.303.714-.527.203-.224.362-.489.47-.779.107-.29.16-.6.155-.911V7.747a2.515 2.515 0 00-.155-.912 2.396 2.396 0 00-.47-.778 2.228 2.228 0 00-.714-.528 2.108 2.108 0 00-.849-.196z"/><path d="M7.5 16H10v2.667H7.5V16zM15 16h2.5v2.667H15V16zM22.5 16H25v2.667h-2.5V16zM30 16h2.5v2.667H30V16zM7.5 22.667H10v2.667H7.5v-2.667zM15 22.667h2.5v2.667H15v-2.667zM22.5 22.667H25v2.667h-2.5v-2.667zM30 22.667h2.5v2.667H30v-2.667zM7.5 29.334H10V32H7.5v-2.666zM15 29.334h2.5V32H15v-2.666zM22.5 29.334H25V32h-2.5v-2.666zM30 29.334h2.5V32H30v-2.666zM10 10.667c.332 0 .65-.14.884-.39.234-.25.366-.59.366-.944v-8a1.38 1.38 0 00-.366-.942A1.212 1.212 0 0010 0c-.332 0-.65.14-.884.39a1.38 1.38 0 00-.366.943v8c0 .354.132.693.366.943.235.25.552.39.884.39zM30 10.667c.331 0 .649-.14.883-.39.235-.25.367-.59.367-.944v-8a1.38 1.38 0 00-.367-.942A1.212 1.212 0 0030 0c-.332 0-.65.14-.884.39a1.38 1.38 0 00-.366.943v8c0 .354.131.693.366.943.234.25.552.39.884.39zM13.75 5.333h12.5V8h-12.5V5.333z"/></symbol><symbol viewBox="0 0 15 15" id="close" xmlns="http://www.w3.org/2000/svg"><path d="M13.753 1.782l-12 12M1.753 1.782l12 12"/></symbol><symbol viewBox="0 0 31 24" id="eye" xmlns="http://www.w3.org/2000/svg"><path d="M30.705 11.4C27.675 4.365 21.978 0 15.83 0S3.984 4.365.955 11.4a1.5 1.5 0 000 1.2C3.985 19.635 9.682 24 15.83 24s11.846-4.365 14.875-11.4a1.501 1.501 0 000-1.2zM15.83 21c-4.753 0-9.252-3.435-11.846-9 2.594-5.565 7.093-9 11.846-9s9.252 3.435 11.846 9c-2.594 5.565-7.093 9-11.846 9zm0-15a5.996 5.996 0 00-5.883 7.17 6 6 0 008.178 4.373A5.998 5.998 0 0021.828 12a6.001 6.001 0 00-5.998-6zm0 9a2.998 2.998 0 01-2.941-3.585 3 3 0 015.434-1.082A3 3 0 0115.83 15z"/></symbol><symbol viewBox="-2 -2 43 37" id="heart" xmlns="http://www.w3.org/2000/svg"><path d="M37.784 4.94C36.15 1.604 31.445-1.125 25.972.464A12.03 12.03 0 0019.5 5.036 12.03 12.03 0 0013.027.465C7.542-1.1 2.85 1.605 1.216 4.939c-2.292 4.668-1.341 9.919 2.828 15.606 3.266 4.45 7.935 8.96 14.712 14.199a1.223 1.223 0 001.5 0c6.764-5.227 11.445-9.7 14.712-14.2 4.156-5.686 5.107-10.937 2.816-15.605z"/></symbol></svg>